<?xml version="1.0" encoding="utf-8"?>
<!-- Generator: Adobe Illustrator 28.3.0, SVG Export Plug-In . SVG Version: 6.00 Build 0)  -->
<svg version="1.1" id="Capa_1" xmlns="http://www.w3.org/2000/svg" xmlns:xlink="http://www.w3.org/1999/xlink" x="0px" y="0px"
	 width="565.5px" height="112.4px" viewBox="0 0 565.5 112.4" style="enable-background:new 0 0 565.5 112.4;" xml:space="preserve"
	>
<style type="text/css">
	.st0{fill:#FFFFFF;}
</style>
<g>
	<path class="st0" d="M37.5,10.5H63v91.4H37.5V10.5z"/>
	<path class="st0" d="M169,10.5h25.5v91.4H169V10.5z"/>
	<path class="st0" d="M256,104.2c-27.8,0-48.6-20.6-48.6-47.9c0-27.5,20.8-48.1,48.6-48.1c24,0,42.5,15.8,46.2,39h-25.5
		c-3.1-9.4-11-15.5-20.7-15.5c-12.9,0-22.4,10.4-22.4,24.6c0,14.1,9.5,24.4,22.4,24.4c10.1,0,18.1-6.6,20.7-16.8h25.8
		C299.1,87.9,280.4,104.2,256,104.2L256,104.2z"/>
	<path class="st0" d="M360.2,104.2c-29.4,0-50.4-20.1-50.4-48s21-48,50.4-48c29.3,0,50.2,20,50.2,48
		C410.4,84.2,389.5,104.2,360.2,104.2L360.2,104.2z M360.2,80.8c13.9,0,24-10.3,24-24.6s-10.1-24.6-24-24.6
		c-14,0-24.2,10.4-24.2,24.6S346.2,80.8,360.2,80.8L360.2,80.8z"/>
	<g>
		<polygon class="st0" points="455.9,10.5 430.9,10.5 417.1,101.9 442.6,101.9 449.6,49.3 473.9,102.1 481.3,102.1 488.7,86.1 		"/>
		<polygon class="st0" points="524.4,10.5 499.3,10.5 486.4,40.1 497.7,66.3 505.6,49.3 512.7,101.9 538.1,101.9 		"/>
	</g>
	<g>
		<path class="st0" d="M139.8,68.7c9-5.4,14.5-14.6,14.5-25.8c0-19.1-14.3-32.3-34-32.3H84.8L94.6,33h22.8c7,0,11.1,4.2,11.1,9.9
			s-4.1,10-13.5,10h-7.6l21.9,49.2h25L139.8,68.7z"/>
	</g>
	<polygon class="st0" points="105.9,102.1 80.8,102.1 80.8,32.6 105.9,91 	"/>
</g>
</svg>
